<?xml version="1.0" encoding="UTF-8" standalone="no"?>
<!DOCTYPE svg PUBLIC "-//W3C//DTD SVG 1.1//EN"
 "http://www.w3.org/Graphics/SVG/1.1/DTD/svg11.dtd">
<!-- Generated by graphviz version 2.43.0 (0)
 -->
<!-- Title: G Pages: 1 -->
<svg width="1161pt" height="570pt"
 viewBox="0.00 0.00 1161.34 569.82" xmlns="http://www.w3.org/2000/svg" xmlns:xlink="http://www.w3.org/1999/xlink">
<g id="graph0" class="graph" transform="scale(1 1) rotate(0) translate(4 565.82)">
<title>G</title><style>.edge>path:hover{stroke-width:8}</style>
<polygon fill="white" stroke="transparent" points="-4,4 -4,-565.82 1157.34,-565.82 1157.34,4 -4,4"/>
<!-- fastapi -->
<g id="node1" class="node">
<title>fastapi</title><style>.edge>path:hover{stroke-width:8}</style>
<ellipse fill="#8a0f0f" stroke="black" cx="482.72" cy="-127" rx="29.37" ry="18"/>
<text text-anchor="middle" x="482.72" y="-124.5" font-family="Helvetica,sans-Serif" font-size="10.00" fill="#ffffff">fastapi</text>
</g>
<!-- main_py -->
<g id="node13" class="node">
<title>main_py</title><style>.edge>path:hover{stroke-width:8}</style>
<ellipse fill="#6b8b4b" stroke="black" cx="943.72" cy="-18" rx="32.93" ry="18"/>
<text text-anchor="middle" x="943.72" y="-15.5" font-family="Helvetica,sans-Serif" font-size="10.00" fill="#ffffff">main.py</text>
</g>
<!-- fastapi&#45;&gt;main_py -->
<g id="edge1" class="edge">
<title>fastapi&#45;&gt;main_py</title><style>.edge>path:hover{stroke-width:8}</style>
<path fill="none" stroke="black" d="M512.21,-125.14C610.13,-121.94 919.61,-109.03 943.72,-73"/>
<path fill="none" stroke="black" d="M943.72,-72C948.72,-64.52 949.9,-55.03 949.45,-46.15"/>
<polygon fill="#8a0f0f" stroke="black" points="952.92,-45.7 948.31,-36.16 945.97,-46.5 952.92,-45.7"/>
</g>
<!-- fastapi_applications -->
<g id="node2" class="node">
<title>fastapi_applications</title><style>.edge>path:hover{stroke-width:8}</style>
<ellipse fill="#883a3a" stroke="black" cx="482.72" cy="-209.99" rx="53.98" ry="21.43"/>
<text text-anchor="middle" x="482.72" y="-212.99" font-family="Helvetica,sans-Serif" font-size="10.00" fill="#ffffff">fastapi.</text>
<text text-anchor="middle" x="482.72" y="-201.99" font-family="Helvetica,sans-Serif" font-size="10.00" fill="#ffffff">applications</text>
</g>
<!-- fastapi_applications&#45;&gt;fastapi -->
<g id="edge2" class="edge">
<title>fastapi_applications&#45;&gt;fastapi</title><style>.edge>path:hover{stroke-width:8}</style>
<path fill="none" stroke="black" d="M482.72,-188.55C482.72,-178.5 482.72,-166.24 482.72,-155.39"/>
<polygon fill="#883a3a" stroke="black" points="486.22,-155.15 482.72,-145.15 479.22,-155.15 486.22,-155.15"/>
</g>
<!-- fastapi_background -->
<g id="node3" class="node">
<title>fastapi_background</title><style>.edge>path:hover{stroke-width:8}</style>
<ellipse fill="#b34c4c" stroke="black" cx="233.72" cy="-303.97" rx="52.15" ry="21.43"/>
<text text-anchor="middle" x="233.72" y="-306.97" font-family="Helvetica,sans-Serif" font-size="10.00" fill="#ffffff">fastapi.</text>
<text text-anchor="middle" x="233.72" y="-295.97" font-family="Helvetica,sans-Serif" font-size="10.00" fill="#ffffff">background</text>
</g>
<!-- fastapi_background&#45;&gt;fastapi -->
<g id="edge3" class="edge">
<title>fastapi_background&#45;&gt;fastapi</title><style>.edge>path:hover{stroke-width:8}</style>
<path fill="none" stroke="black" d="M268.52,-287.88C306.28,-271.31 362.35,-246.11 370.72,-238.98 382.16,-229.23 379.3,-221.83 389.72,-210.99"/>
<path fill="none" stroke="black" d="M389.72,-208.99C411.13,-186.7 437.97,-163.79 457.31,-148.05"/>
<polygon fill="#b34c4c" stroke="black" points="459.51,-150.77 465.1,-141.77 455.12,-145.32 459.51,-150.77"/>
</g>
<!-- fastapi_datastructures -->
<g id="node4" class="node">
<title>fastapi_datastructures</title><style>.edge>path:hover{stroke-width:8}</style>
<ellipse fill="#c43131" stroke="black" cx="403.72" cy="-390.18" rx="61.54" ry="21.43"/>
<text text-anchor="middle" x="403.72" y="-393.18" font-family="Helvetica,sans-Serif" font-size="10.00" fill="#ffffff">fastapi.</text>
<text text-anchor="middle" x="403.72" y="-382.18" font-family="Helvetica,sans-Serif" font-size="10.00" fill="#ffffff">datastructures</text>
</g>
<!-- fastapi_datastructures&#45;&gt;fastapi -->
<g id="edge4" class="edge">
<title>fastapi_datastructures&#45;&gt;fastapi</title><style>.edge>path:hover{stroke-width:8}</style>
<path fill="none" stroke="black" d="M366.43,-373.12C340.33,-359.08 310.62,-336.06 313.72,-304.97"/>
</g>
<!-- fastapi_datastructures&#45;&gt;fastapi_applications -->
<g id="edge5" class="edge">
<title>fastapi_datastructures&#45;&gt;fastapi_applications</title><style>.edge>path:hover{stroke-width:8}</style>
<path fill="none" stroke="black" d="M412.39,-368.86C418.84,-352.08 426.7,-327.45 427.72,-304.97"/>
<path fill="none" stroke="black" d="M427.72,-302.97C428.82,-278.53 443.3,-254.94 457.13,-237.76"/>
<polygon fill="#c43131" stroke="black" points="460.01,-239.77 463.8,-229.87 454.67,-235.25 460.01,-239.77"/>
</g>
<!-- fastapi_routing -->
<g id="node11" class="node">
<title>fastapi_routing</title><style>.edge>path:hover{stroke-width:8}</style>
<ellipse fill="#a13535" stroke="black" cx="492.72" cy="-303.97" rx="37.45" ry="21.43"/>
<text text-anchor="middle" x="492.72" y="-306.97" font-family="Helvetica,sans-Serif" font-size="10.00" fill="#ffffff">fastapi.</text>
<text text-anchor="middle" x="492.72" y="-295.97" font-family="Helvetica,sans-Serif" font-size="10.00" fill="#ffffff">routing</text>
</g>
<!-- fastapi_datastructures&#45;&gt;fastapi_routing -->
<g id="edge6" class="edge">
<title>fastapi_datastructures&#45;&gt;fastapi_routing</title><style>.edge>path:hover{stroke-width:8}</style>
<path fill="none" stroke="black" d="M423.91,-370.07C436.52,-358.15 452.88,-342.67 466.48,-329.8"/>
<polygon fill="#c43131" stroke="black" points="469.26,-331.99 474.12,-322.57 464.45,-326.9 469.26,-331.99"/>
</g>
<!-- fastapi_exceptions -->
<g id="node5" class="node">
<title>fastapi_exceptions</title><style>.edge>path:hover{stroke-width:8}</style>
<ellipse fill="#cc3333" stroke="black" cx="532.72" cy="-390.18" rx="49.49" ry="21.43"/>
<text text-anchor="middle" x="532.72" y="-393.18" font-family="Helvetica,sans-Serif" font-size="10.00" fill="#ffffff">fastapi.</text>
<text text-anchor="middle" x="532.72" y="-382.18" font-family="Helvetica,sans-Serif" font-size="10.00" fill="#ffffff">exceptions</text>
</g>
<!-- fastapi_exceptions&#45;&gt;fastapi -->
<g id="edge7" class="edge">
<title>fastapi_exceptions&#45;&gt;fastapi</title><style>.edge>path:hover{stroke-width:8}</style>
<path fill="none" stroke="black" d="M495.65,-375.9C464.87,-364.14 424.46,-346.75 413.72,-332.97 379.76,-289.38 351.44,-250.83 389.72,-210.99"/>
</g>
<!-- fastapi_exceptions&#45;&gt;fastapi_applications -->
<g id="edge8" class="edge">
<title>fastapi_exceptions&#45;&gt;fastapi_applications</title><style>.edge>path:hover{stroke-width:8}</style>
<path fill="none" stroke="black" d="M494.62,-376.6C463.93,-363.79 426.11,-340.69 427.72,-304.97"/>
</g>
<!-- fastapi_exceptions&#45;&gt;fastapi_routing -->
<g id="edge9" class="edge">
<title>fastapi_exceptions&#45;&gt;fastapi_routing</title><style>.edge>path:hover{stroke-width:8}</style>
<path fill="none" stroke="black" d="M523.24,-369.22C518.26,-358.74 512.06,-345.69 506.55,-334.09"/>
<polygon fill="#cc3333" stroke="black" points="509.58,-332.32 502.13,-324.79 503.26,-335.32 509.58,-332.32"/>
</g>
<!-- fastapi_middleware -->
<g id="node6" class="node">
<title>fastapi_middleware</title><style>.edge>path:hover{stroke-width:8}</style>
<ellipse fill="#ac4949" stroke="black" cx="943.72" cy="-303.97" rx="52.15" ry="21.43"/>
<text text-anchor="middle" x="943.72" y="-306.97" font-family="Helvetica,sans-Serif" font-size="10.00" fill="#ffffff">fastapi.</text>
<text text-anchor="middle" x="943.72" y="-295.97" font-family="Helvetica,sans-Serif" font-size="10.00" fill="#ffffff">middleware</text>
</g>
<!-- fastapi_middleware&#45;&gt;main_py -->
<g id="edge10" class="edge">
<title>fastapi_middleware&#45;&gt;main_py</title><style>.edge>path:hover{stroke-width:8}</style>
<path fill="none" stroke="black" d="M938.25,-282.8C930.19,-248.83 918.61,-178.96 943.72,-128"/>
</g>
<!-- fastapi_middleware_cors -->
<g id="node7" class="node">
<title>fastapi_middleware_cors</title><style>.edge>path:hover{stroke-width:8}</style>
<ellipse fill="#a44646" stroke="black" cx="861.72" cy="-209.99" rx="54.39" ry="28.98"/>
<text text-anchor="middle" x="861.72" y="-218.49" font-family="Helvetica,sans-Serif" font-size="10.00" fill="#ffffff">fastapi.</text>
<text text-anchor="middle" x="861.72" y="-207.49" font-family="Helvetica,sans-Serif" font-size="10.00" fill="#ffffff">middleware.</text>
<text text-anchor="middle" x="861.72" y="-196.49" font-family="Helvetica,sans-Serif" font-size="10.00" fill="#ffffff">cors</text>
</g>
<!-- fastapi_middleware_cors&#45;&gt;main_py -->
<g id="edge11" class="edge">
<title>fastapi_middleware_cors&#45;&gt;main_py</title><style>.edge>path:hover{stroke-width:8}</style>
<path fill="none" stroke="black" d="M893.4,-186.4C911.26,-171.85 932.22,-151.33 943.72,-128"/>
</g>
<!-- fastapi_param_functions -->
<g id="node8" class="node">
<title>fastapi_param_functions</title><style>.edge>path:hover{stroke-width:8}</style>
<ellipse fill="#b34c4c" stroke="black" cx="292.72" cy="-209.99" rx="69.09" ry="21.43"/>
<text text-anchor="middle" x="292.72" y="-212.99" font-family="Helvetica,sans-Serif" font-size="10.00" fill="#ffffff">fastapi.</text>
<text text-anchor="middle" x="292.72" y="-201.99" font-family="Helvetica,sans-Serif" font-size="10.00" fill="#ffffff">param_functions</text>
</g>
<!-- fastapi_param_functions&#45;&gt;fastapi -->
<g id="edge12" class="edge">
<title>fastapi_param_functions&#45;&gt;fastapi</title><style>.edge>path:hover{stroke-width:8}</style>
<path fill="none" stroke="black" d="M331.63,-192.41C366.36,-177.6 416.67,-156.15 449.54,-142.14"/>
<polygon fill="#b34c4c" stroke="black" points="451.32,-145.19 459.14,-138.05 448.57,-138.75 451.32,-145.19"/>
</g>
<!-- fastapi_requests -->
<g id="node9" class="node">
<title>fastapi_requests</title><style>.edge>path:hover{stroke-width:8}</style>
<ellipse fill="#b34c4c" stroke="black" cx="41.72" cy="-390.18" rx="41.94" ry="21.43"/>
<text text-anchor="middle" x="41.72" y="-393.18" font-family="Helvetica,sans-Serif" font-size="10.00" fill="#ffffff">fastapi.</text>
<text text-anchor="middle" x="41.72" y="-382.18" font-family="Helvetica,sans-Serif" font-size="10.00" fill="#ffffff">requests</text>
</g>
<!-- fastapi_requests&#45;&gt;fastapi -->
<g id="edge13" class="edge">
<title>fastapi_requests&#45;&gt;fastapi</title><style>.edge>path:hover{stroke-width:8}</style>
<path fill="none" stroke="black" d="M74.98,-377.21C103.96,-364.52 142.97,-341.24 153.72,-304.97"/>
<path fill="none" stroke="black" d="M153.72,-302.97C170.94,-244.86 166.51,-217.74 214.72,-181 250.1,-154.04 377.49,-138.14 443.08,-131.56"/>
<polygon fill="#b34c4c" stroke="black" points="443.82,-135 453.43,-130.55 443.14,-128.04 443.82,-135"/>
</g>
<!-- fastapi_responses -->
<g id="node10" class="node">
<title>fastapi_responses</title><style>.edge>path:hover{stroke-width:8}</style>
<ellipse fill="#b83d3d" stroke="black" cx="701.72" cy="-209.99" rx="46.84" ry="21.43"/>
<text text-anchor="middle" x="701.72" y="-212.99" font-family="Helvetica,sans-Serif" font-size="10.00" fill="#ffffff">fastapi.</text>
<text text-anchor="middle" x="701.72" y="-201.99" font-family="Helvetica,sans-Serif" font-size="10.00" fill="#ffffff">responses</text>
</g>
<!-- fastapi_responses&#45;&gt;fastapi -->
<g id="edge14" class="edge">
<title>fastapi_responses&#45;&gt;fastapi</title><style>.edge>path:hover{stroke-width:8}</style>
<path fill="none" stroke="black" d="M670.65,-193.96C661.14,-189.57 650.58,-184.9 640.72,-181 599.45,-164.66 550.91,-148.88 518.63,-138.84"/>
<polygon fill="#b83d3d" stroke="black" points="519.34,-135.4 508.75,-135.8 517.27,-142.09 519.34,-135.4"/>
</g>
<!-- fastapi_responses&#45;&gt;main_py -->
<g id="edge15" class="edge">
<title>fastapi_responses&#45;&gt;main_py</title><style>.edge>path:hover{stroke-width:8}</style>
<path fill="none" stroke="black" d="M739.96,-197.74C806.98,-177.8 939.05,-137.48 943.72,-128"/>
<path fill="none" stroke="black" d="M943.72,-126C954.13,-104.87 930.62,-92.58 943.72,-73"/>
</g>
<!-- fastapi_routing&#45;&gt;fastapi -->
<g id="edge16" class="edge">
<title>fastapi_routing&#45;&gt;fastapi</title><style>.edge>path:hover{stroke-width:8}</style>
<path fill="none" stroke="black" d="M521.91,-290.34C562.97,-271.58 632.24,-235.92 626.72,-210.99"/>
<path fill="none" stroke="black" d="M626.72,-208.99C616.56,-163.1 560.41,-142.78 521.31,-134.09"/>
<polygon fill="#a13535" stroke="black" points="521.78,-130.61 511.28,-132.03 520.37,-137.47 521.78,-130.61"/>
</g>
<!-- fastapi_routing&#45;&gt;fastapi_applications -->
<g id="edge17" class="edge">
<title>fastapi_routing&#45;&gt;fastapi_applications</title><style>.edge>path:hover{stroke-width:8}</style>
<path fill="none" stroke="black" d="M490.5,-282.56C489.19,-270.53 487.51,-255.08 486.05,-241.62"/>
<polygon fill="#a13535" stroke="black" points="489.49,-240.91 484.93,-231.35 482.53,-241.67 489.49,-240.91"/>
</g>
<!-- fastapi_websockets -->
<g id="node12" class="node">
<title>fastapi_websockets</title><style>.edge>path:hover{stroke-width:8}</style>
<ellipse fill="#b34c4c" stroke="black" cx="153.72" cy="-390.18" rx="52.15" ry="21.43"/>
<text text-anchor="middle" x="153.72" y="-393.18" font-family="Helvetica,sans-Serif" font-size="10.00" fill="#ffffff">fastapi.</text>
<text text-anchor="middle" x="153.72" y="-382.18" font-family="Helvetica,sans-Serif" font-size="10.00" fill="#ffffff">websockets</text>
</g>
<!-- fastapi_websockets&#45;&gt;fastapi -->
<g id="edge18" class="edge">
<title>fastapi_websockets&#45;&gt;fastapi</title><style>.edge>path:hover{stroke-width:8}</style>
<path fill="none" stroke="black" d="M150.55,-368.98C148.58,-351.63 147.45,-326.14 153.72,-304.97"/>
</g>
<!-- starlette -->
<g id="node14" class="node">
<title>starlette</title><style>.edge>path:hover{stroke-width:8}</style>
<ellipse fill="#10f9f9" stroke="black" cx="562.72" cy="-543.82" rx="34.29" ry="18"/>
<text text-anchor="middle" x="562.72" y="-541.32" font-family="Helvetica,sans-Serif" font-size="10.00" fill="#000000">starlette</text>
</g>
<!-- starlette&#45;&gt;fastapi -->
<g id="edge19" class="edge">
<title>starlette&#45;&gt;fastapi</title><style>.edge>path:hover{stroke-width:8}</style>
<path fill="none" stroke="black" d="M313.72,-389.18C296.41,-356 310,-342.21 313.72,-304.97"/>
<path fill="none" stroke="black" d="M313.72,-302.97C317.5,-265.07 346.25,-268.17 370.72,-238.98 380.38,-227.46 379.36,-221.89 389.72,-210.99"/>
</g>
<!-- starlette&#45;&gt;fastapi_applications -->
<g id="edge20" class="edge">
<title>starlette&#45;&gt;fastapi_applications</title><style>.edge>path:hover{stroke-width:8}</style>
<path fill="none" stroke="black" d="M313.72,-389.18C294.3,-354.25 393.95,-274.92 448.7,-234.95"/>
<polygon fill="#10f9f9" stroke="black" points="451.02,-237.59 457.07,-228.89 446.92,-231.92 451.02,-237.59"/>
</g>
<!-- starlette&#45;&gt;fastapi_background -->
<g id="edge21" class="edge">
<title>starlette&#45;&gt;fastapi_background</title><style>.edge>path:hover{stroke-width:8}</style>
<path fill="none" stroke="black" d="M403.72,-467.61C362.42,-435.24 339.22,-437.04 313.72,-391.18"/>
<path fill="none" stroke="black" d="M313.72,-389.18C301.14,-366.56 281.07,-345.46 264.18,-330.03"/>
<polygon fill="#10f9f9" stroke="black" points="266.47,-327.39 256.68,-323.36 261.82,-332.62 266.47,-327.39"/>
</g>
<!-- starlette&#45;&gt;fastapi_datastructures -->
<g id="edge22" class="edge">
<title>starlette&#45;&gt;fastapi_datastructures</title><style>.edge>path:hover{stroke-width:8}</style>
<path fill="none" stroke="black" d="M403.72,-467.61C390.42,-456.96 390.46,-437.78 393.8,-421.29"/>
<polygon fill="#10f9f9" stroke="black" points="397.23,-422.03 396.22,-411.48 390.43,-420.35 397.23,-422.03"/>
</g>
<!-- starlette&#45;&gt;fastapi_exceptions -->
<g id="edge23" class="edge">
<title>starlette&#45;&gt;fastapi_exceptions</title><style>.edge>path:hover{stroke-width:8}</style>
<path fill="none" stroke="black" d="M403.72,-467.61C387.15,-454.34 444.01,-426.97 487.49,-408.85"/>
<polygon fill="#10f9f9" stroke="black" points="488.89,-412.05 496.81,-405.02 486.23,-405.58 488.89,-412.05"/>
</g>
<!-- starlette&#45;&gt;fastapi_middleware -->
<g id="edge24" class="edge">
<title>starlette&#45;&gt;fastapi_middleware</title><style>.edge>path:hover{stroke-width:8}</style>
<path fill="none" stroke="black" d="M931.72,-467.61C948.47,-417.16 1012.37,-443.11 1023.72,-391.18"/>
<path fill="none" stroke="black" d="M1023.72,-389.18C1029.49,-362.8 1007.34,-340.98 984.89,-326.17"/>
<polygon fill="#10f9f9" stroke="black" points="986.67,-323.15 976.34,-320.84 982.97,-329.1 986.67,-323.15"/>
</g>
<!-- starlette&#45;&gt;fastapi_middleware_cors -->
<g id="edge25" class="edge">
<title>starlette&#45;&gt;fastapi_middleware_cors</title><style>.edge>path:hover{stroke-width:8}</style>
<path fill="none" stroke="black" d="M1023.72,-389.18C1034.71,-338.91 1036.16,-315.71 1004.72,-274.98 984.56,-248.87 951.4,-233.14 922.09,-223.81"/>
<polygon fill="#10f9f9" stroke="black" points="922.9,-220.4 912.32,-220.89 920.9,-227.11 922.9,-220.4"/>
</g>
<!-- starlette&#45;&gt;fastapi_requests -->
<g id="edge26" class="edge">
<title>starlette&#45;&gt;fastapi_requests</title><style>.edge>path:hover{stroke-width:8}</style>
<path fill="none" stroke="black" d="M533.7,-534.22C499.93,-523.2 443.69,-501.61 403.72,-469.61"/>
<path fill="none" stroke="black" d="M403.72,-467.61C294.07,-379.82 227.79,-449.95 92.72,-411.39 89.32,-410.42 85.83,-409.31 82.36,-408.11"/>
<polygon fill="#10f9f9" stroke="black" points="83.26,-404.72 72.67,-404.58 80.86,-411.29 83.26,-404.72"/>
</g>
<!-- starlette&#45;&gt;fastapi_responses -->
<g id="edge27" class="edge">
<title>starlette&#45;&gt;fastapi_responses</title><style>.edge>path:hover{stroke-width:8}</style>
<path fill="none" stroke="black" d="M597.02,-542.84C684.5,-541.95 910.53,-533.45 931.72,-469.61"/>
<path fill="none" stroke="black" d="M931.72,-467.61C952.97,-403.58 846.26,-449.69 790.72,-411.39 739.49,-376.06 691.14,-366.61 699.72,-304.97"/>
</g>
<!-- starlette&#45;&gt;fastapi_routing -->
<g id="edge28" class="edge">
<title>starlette&#45;&gt;fastapi_routing</title><style>.edge>path:hover{stroke-width:8}</style>
<path fill="none" stroke="black" d="M403.72,-467.61C335.97,-413.36 538.93,-481.03 590.72,-411.39 601.97,-396.26 599.7,-385.55 590.72,-368.97 587.07,-362.22 553.66,-341.19 526.84,-325.05"/>
<polygon fill="#10f9f9" stroke="black" points="528.44,-321.93 518.06,-319.8 524.84,-327.94 528.44,-321.93"/>
</g>
<!-- starlette&#45;&gt;fastapi_websockets -->
<g id="edge29" class="edge">
<title>starlette&#45;&gt;fastapi_websockets</title><style>.edge>path:hover{stroke-width:8}</style>
<path fill="none" stroke="black" d="M403.72,-467.61C348.97,-423.77 269.21,-405.01 214.6,-397.02"/>
<polygon fill="#10f9f9" stroke="black" points="214.75,-393.51 204.37,-395.61 213.79,-400.44 214.75,-393.51"/>
</g>
<!-- starlette_middleware -->
<g id="node15" class="node">
<title>starlette_middleware</title><style>.edge>path:hover{stroke-width:8}</style>
<ellipse fill="#33cccc" stroke="black" cx="851.72" cy="-390.18" rx="52.15" ry="21.43"/>
<text text-anchor="middle" x="851.72" y="-393.18" font-family="Helvetica,sans-Serif" font-size="10.00" fill="#000000">starlette.</text>
<text text-anchor="middle" x="851.72" y="-382.18" font-family="Helvetica,sans-Serif" font-size="10.00" fill="#000000">middleware</text>
</g>
<!-- starlette_middleware&#45;&gt;fastapi_applications -->
<g id="edge30" class="edge">
<title>starlette_middleware&#45;&gt;fastapi_applications</title><style>.edge>path:hover{stroke-width:8}</style>
<path fill="none" stroke="black" d="M801.9,-383.55C733,-375 613.01,-357.16 576.72,-332.97 564.21,-324.62 569.63,-314.15 557.72,-304.97"/>
</g>
<!-- starlette_middleware&#45;&gt;fastapi_middleware -->
<g id="edge31" class="edge">
<title>starlette_middleware&#45;&gt;fastapi_middleware</title><style>.edge>path:hover{stroke-width:8}</style>
<path fill="none" stroke="black" d="M872.14,-370.49C885,-358.72 901.78,-343.36 915.86,-330.48"/>
<polygon fill="#33cccc" stroke="black" points="918.34,-332.94 923.36,-323.61 913.62,-327.78 918.34,-332.94"/>
</g>
<!-- starlette_middleware&#45;&gt;fastapi_middleware_cors -->
<g id="edge32" class="edge">
<title>starlette_middleware&#45;&gt;fastapi_middleware_cors</title><style>.edge>path:hover{stroke-width:8}</style>
<path fill="none" stroke="black" d="M852.87,-368.74C854.5,-339.7 857.51,-285.98 859.57,-249.37"/>
<polygon fill="#33cccc" stroke="black" points="863.08,-249.26 860.14,-239.08 856.09,-248.86 863.08,-249.26"/>
</g>
<!-- starlette_middleware_cors -->
<g id="node16" class="node">
<title>starlette_middleware_cors</title><style>.edge>path:hover{stroke-width:8}</style>
<ellipse fill="#49acac" stroke="black" cx="781.72" cy="-303.97" rx="54.39" ry="28.98"/>
<text text-anchor="middle" x="781.72" y="-312.47" font-family="Helvetica,sans-Serif" font-size="10.00" fill="#000000">starlette.</text>
<text text-anchor="middle" x="781.72" y="-301.47" font-family="Helvetica,sans-Serif" font-size="10.00" fill="#000000">middleware.</text>
<text text-anchor="middle" x="781.72" y="-290.47" font-family="Helvetica,sans-Serif" font-size="10.00" fill="#000000">cors</text>
</g>
<!-- starlette_middleware_cors&#45;&gt;fastapi_middleware_cors -->
<g id="edge33" class="edge">
<title>starlette_middleware_cors&#45;&gt;fastapi_middleware_cors</title><style>.edge>path:hover{stroke-width:8}</style>
<path fill="none" stroke="black" d="M804,-277.35C812.93,-267.09 823.34,-255.12 832.83,-244.2"/>
<polygon fill="#49acac" stroke="black" points="835.63,-246.32 839.55,-236.48 830.35,-241.72 835.63,-246.32"/>
</g>
<!-- starlette_responses -->
<g id="node17" class="node">
<title>starlette_responses</title><style>.edge>path:hover{stroke-width:8}</style>
<ellipse fill="#26d9d9" stroke="black" cx="706.72" cy="-468.61" rx="46.84" ry="21.43"/>
<text text-anchor="middle" x="706.72" y="-471.61" font-family="Helvetica,sans-Serif" font-size="10.00" fill="#000000">starlette.</text>
<text text-anchor="middle" x="706.72" y="-460.61" font-family="Helvetica,sans-Serif" font-size="10.00" fill="#000000">responses</text>
</g>
<!-- starlette_responses&#45;&gt;fastapi_applications -->
<g id="edge34" class="edge">
<title>starlette_responses&#45;&gt;fastapi_applications</title><style>.edge>path:hover{stroke-width:8}</style>
<path fill="none" stroke="black" d="M654.72,-389.18C629.26,-354.86 606.51,-363.6 576.72,-332.97 566.24,-322.19 569.63,-314.15 557.72,-304.97"/>
<path fill="none" stroke="black" d="M557.72,-302.97C545.81,-293.8 547.91,-286.88 538.72,-274.98 528.89,-262.26 517.3,-248.79 507.21,-237.5"/>
<polygon fill="#26d9d9" stroke="black" points="509.81,-235.15 500.51,-230.07 504.61,-239.84 509.81,-235.15"/>
</g>
<!-- starlette_responses&#45;&gt;fastapi_responses -->
<g id="edge35" class="edge">
<title>starlette_responses&#45;&gt;fastapi_responses</title><style>.edge>path:hover{stroke-width:8}</style>
<path fill="none" stroke="black" d="M654.72,-389.18C629.43,-355.1 693.87,-347 699.72,-304.97"/>
<path fill="none" stroke="black" d="M699.72,-302.97C702.54,-282.7 703.04,-259.68 702.83,-241.74"/>
<polygon fill="#26d9d9" stroke="black" points="706.33,-241.49 702.63,-231.56 699.33,-241.63 706.33,-241.49"/>
</g>
<!-- starlette_responses&#45;&gt;fastapi_routing -->
<g id="edge36" class="edge">
<title>starlette_responses&#45;&gt;fastapi_routing</title><style>.edge>path:hover{stroke-width:8}</style>
<path fill="none" stroke="black" d="M694.11,-448.14C683.84,-432.51 668.78,-410.12 654.72,-391.18"/>
<path fill="none" stroke="black" d="M654.72,-389.18C638.41,-367.2 558.79,-340.48 543.72,-332.97 538.39,-330.31 532.81,-327.39 527.38,-324.48"/>
<polygon fill="#26d9d9" stroke="black" points="528.91,-321.32 518.45,-319.61 525.56,-327.47 528.91,-321.32"/>
</g>
<!-- starlette_responses&#45;&gt;starlette_middleware_cors -->
<g id="edge37" class="edge">
<title>starlette_responses&#45;&gt;starlette_middleware_cors</title><style>.edge>path:hover{stroke-width:8}</style>
<path fill="none" stroke="black" d="M715.92,-447.66C728.06,-421.34 749.66,-374.5 764.79,-341.69"/>
<polygon fill="#26d9d9" stroke="black" points="768.06,-342.96 769.07,-332.41 761.7,-340.03 768.06,-342.96"/>
</g>
<!-- starlette_status -->
<g id="node18" class="node">
<title>starlette_status</title><style>.edge>path:hover{stroke-width:8}</style>
<ellipse fill="#53b6b6" stroke="black" cx="628.72" cy="-303.97" rx="43.27" ry="21.43"/>
<text text-anchor="middle" x="628.72" y="-306.97" font-family="Helvetica,sans-Serif" font-size="10.00" fill="#000000">starlette.</text>
<text text-anchor="middle" x="628.72" y="-295.97" font-family="Helvetica,sans-Serif" font-size="10.00" fill="#000000">status</text>
</g>
<!-- starlette_status&#45;&gt;fastapi -->
<g id="edge38" class="edge">
<title>starlette_status&#45;&gt;fastapi</title><style>.edge>path:hover{stroke-width:8}</style>
<path fill="none" stroke="black" d="M630.53,-282.61C631.67,-263.79 632.07,-235.16 626.72,-210.99"/>
</g>
<!-- uvicorn -->
<g id="node19" class="node">
<title>uvicorn</title><style>.edge>path:hover{stroke-width:8}</style>
<ellipse fill="#7523c8" stroke="black" cx="1008.72" cy="-127" rx="31.4" ry="18"/>
<text text-anchor="middle" x="1008.72" y="-124.5" font-family="Helvetica,sans-Serif" font-size="10.00" fill="#ffffff">uvicorn</text>
</g>
<!-- uvicorn&#45;&gt;main_py -->
<g id="edge39" class="edge">
<title>uvicorn&#45;&gt;main_py</title><style>.edge>path:hover{stroke-width:8}</style>
<path fill="none" stroke="black" d="M982.25,-117.23C959.04,-108.03 930.85,-92.24 943.72,-73"/>
</g>
<!-- uvicorn_config -->
<g id="node20" class="node">
<title>uvicorn_config</title><style>.edge>path:hover{stroke-width:8}</style>
<ellipse fill="#7f40c0" stroke="black" cx="1102.72" cy="-303.97" rx="50.75" ry="18"/>
<text text-anchor="middle" x="1102.72" y="-301.47" font-family="Helvetica,sans-Serif" font-size="10.00" fill="#ffffff">uvicorn.config</text>
</g>
<!-- uvicorn_config&#45;&gt;uvicorn -->
<g id="edge40" class="edge">
<title>uvicorn_config&#45;&gt;uvicorn</title><style>.edge>path:hover{stroke-width:8}</style>
<path fill="none" stroke="black" d="M1083.79,-287.08C1070.59,-275.09 1053.49,-257.56 1042.72,-238.98 1027.38,-212.52 1018.28,-178.43 1013.41,-155.06"/>
<polygon fill="#7f40c0" stroke="black" points="1016.83,-154.28 1011.47,-145.14 1009.96,-155.62 1016.83,-154.28"/>
</g>
<!-- uvicorn_main -->
<g id="node21" class="node">
<title>uvicorn_main</title><style>.edge>path:hover{stroke-width:8}</style>
<ellipse fill="#7a49ac" stroke="black" cx="1098.72" cy="-209.99" rx="47.19" ry="18"/>
<text text-anchor="middle" x="1098.72" y="-207.49" font-family="Helvetica,sans-Serif" font-size="10.00" fill="#ffffff">uvicorn.main</text>
</g>
<!-- uvicorn_config&#45;&gt;uvicorn_main -->
<g id="edge41" class="edge">
<title>uvicorn_config&#45;&gt;uvicorn_main</title><style>.edge>path:hover{stroke-width:8}</style>
<path fill="none" stroke="black" d="M1101.97,-285.67C1101.39,-272.44 1100.59,-253.93 1099.92,-238.65"/>
<polygon fill="#7f40c0" stroke="black" points="1103.4,-238.05 1099.47,-228.22 1096.41,-238.36 1103.4,-238.05"/>
</g>
<!-- uvicorn_main&#45;&gt;uvicorn -->
<g id="edge42" class="edge">
<title>uvicorn_main&#45;&gt;uvicorn</title><style>.edge>path:hover{stroke-width:8}</style>
<path fill="none" stroke="black" d="M1080.94,-192.99C1067.07,-180.51 1047.67,-163.05 1032.47,-149.37"/>
<polygon fill="#7a49ac" stroke="black" points="1034.73,-146.69 1024.95,-142.61 1030.04,-151.9 1034.73,-146.69"/>
</g>
</g>
</svg>
